<svg width="111" height="24" viewBox="0 0 111 24" fill="none" xmlns="http://www.w3.org/2000/svg">
<g clip-path="url(#clip0)">
<path d="M36.3732 8.28516C35.0501 8.28516 33.9843 8.92157 33.2371 9.87618L33.4576 8.64008H30.0642L27.7734 22.0414H31.1668L32.1713 16.1057C32.5878 17.2439 33.4576 18.0516 34.9154 18.0516C37.3287 18.0516 39.4602 15.9833 39.8032 13.1684C40.1218 10.4759 38.7865 8.28516 36.3732 8.28516ZM36.0179 14.6248C35.6136 15.0776 35.0991 15.3101 34.4744 15.3101C33.9231 15.3101 33.4821 15.151 33.1513 14.8206C32.8083 14.4902 32.6491 14.0618 32.6491 13.5111C32.6491 12.8012 32.8573 12.2138 33.2616 11.7365C33.6658 11.2714 34.1804 11.0266 34.7929 11.0266C35.3441 11.0266 35.7851 11.198 36.1281 11.5284C36.4712 11.8711 36.6427 12.3117 36.6427 12.8747C36.6304 13.5845 36.4222 14.1719 36.0179 14.6248Z" fill="black"/>
<path d="M48.8302 8.64113L48.5484 10.2199C48.0707 9.15515 47.1519 8.44531 45.7676 8.44531C43.4033 8.44531 41.2473 10.4525 40.892 13.1817C40.5735 15.7885 41.9945 17.918 44.3711 17.918C45.6084 17.918 46.6987 17.3428 47.5072 16.4249L47.2867 17.7222H50.6432L52.2235 8.65337H48.8302V8.64113ZM47.5562 14.6258C47.1519 15.0787 46.6374 15.3112 46.0126 15.3112C45.4614 15.3112 45.0204 15.1521 44.6896 14.8217C44.3466 14.4912 44.1873 14.0629 44.1873 13.5121C44.1873 12.8023 44.3956 12.2148 44.7999 11.7375C45.2041 11.2724 45.7186 11.0277 46.3311 11.0277C46.8824 11.0277 47.3234 11.199 47.6664 11.5295C48.0094 11.8721 48.1809 12.3127 48.1809 12.8757C48.1564 13.5855 47.9604 14.173 47.5562 14.6258Z" fill="black"/>
<path d="M58.3098 11.5908C57.3788 11.5663 56.5948 12.5209 56.46 13.5612V13.5367L55.725 17.6979H52.4297L53.9855 8.62902H57.3053L57.0726 9.97527C57.7586 9.04513 58.7141 8.39648 59.6329 8.39648C60.3066 8.39648 60.8212 8.77588 61.1519 9.22871L59.3389 12.1293C59.0816 11.8478 58.7631 11.5908 58.3098 11.5908Z" fill="black"/>
<path d="M72.5467 8.64132L68.0018 12.4598L71.2236 17.7102H67.4505L64.584 13.035L63.7755 17.7102H60.5781L63.2119 2.32617H66.4215L64.8045 11.7377L68.4183 8.64132H72.5467Z" fill="black"/>
<path d="M75.559 22.042H72.1289L75.1302 17.0608L72.6434 8.64062H76.196L77.2985 13.6707L80.1161 8.64062H83.6074L75.559 22.042Z" fill="black"/>
<path d="M21.869 14.9425C22.7142 14.9425 23.4615 14.4897 23.5718 13.7798C23.731 12.8986 22.7387 12.556 21.3177 11.9685C19.8232 11.2954 18.0469 9.9736 18.2796 7.63602C18.5981 5.05366 21.1462 3.56055 23.8658 3.56055C26.4261 3.56055 27.9451 4.98023 28.6434 6.63245L25.6421 8.17452C25.1643 7.30558 24.5395 6.75484 23.5718 6.75484C22.8367 6.75484 22.212 7.07304 22.114 7.6605C21.9425 8.56616 23.535 9.01899 24.7233 9.47182C26.6221 10.2061 27.7981 11.6381 27.5654 13.6942C27.2101 16.5702 24.4415 18.2347 21.6485 18.2347C19.0392 18.2347 16.9934 16.6926 16.2461 14.5509L19.0269 12.6783C19.6394 13.9756 20.5337 14.9425 21.869 14.9425Z" fill="black"/>
<path d="M6.06215 9.91384L8.10795 6.26672C8.13245 6.21777 8.15695 6.15658 8.15695 6.09538L8.18146 0.367693C8.18146 -0.0117053 7.69144 -0.134092 7.50769 0.184113L-0.0017406 13.5977C-0.136494 13.8302 6.06215 9.91384 6.06215 9.91384Z" fill="url(#paint0_linear)"/>
<path d="M6.08805 14.0864L4.04225 17.7457C4.01775 17.7947 3.99325 17.8559 3.99325 17.9171L3.96875 23.6448C3.96875 24.0242 4.45876 24.1465 4.64252 23.8283L12.1519 10.4025C12.2867 10.17 6.08805 14.0864 6.08805 14.0864Z" fill="url(#paint1_linear)"/>
<path d="M11.86 9.90039H10.9902H6.10236H2.10877L0.0507195 13.5842C-0.0840337 13.829 0.0874704 14.1227 0.369227 14.1227H6.11461H10.1205L12.1785 10.4389C12.301 10.1941 12.1295 9.90039 11.86 9.90039Z" fill="url(#paint2_linear)"/>
</g>
<path d="M86.9766 6.65625C86.9766 3.89482 89.2151 1.65625 91.9766 1.65625H110.999V8.24246C110.999 11.0039 108.761 13.2425 105.999 13.2425H86.9766V6.65625Z" fill="#CF1322"/>
<path d="M89.4648 9.93231V4.9668H91.4352C92.1178 4.9668 92.6355 5.08275 92.9883 5.31466C93.3412 5.54429 93.5176 5.88192 93.5176 6.32754C93.5176 6.57081 93.4468 6.78567 93.3052 6.9721C93.1635 7.15626 92.9665 7.29154 92.714 7.37794C93.0025 7.4416 93.2292 7.57006 93.394 7.76331C93.5614 7.95657 93.6451 8.19302 93.6451 8.47267C93.6451 8.95012 93.4726 9.31162 93.1274 9.55717C92.7823 9.80272 92.2903 9.92777 91.6516 9.93231H89.4648ZM90.6239 7.77013V9.11041H91.6168C91.8898 9.11041 92.1023 9.05357 92.2543 8.93989C92.4088 8.82394 92.4861 8.66479 92.4861 8.46244C92.4861 8.00772 92.2195 7.77695 91.6864 7.77013H90.6239ZM90.6239 7.04713H91.4816C92.0663 7.03804 92.3586 6.83228 92.3586 6.42985C92.3586 6.20477 92.2839 6.04334 92.1345 5.94558C91.9877 5.84554 91.7546 5.79552 91.4352 5.79552H90.6239V7.04713Z" fill="#F5F6F8"/>
<path d="M97.9818 7.78036H95.7565V9.11041H98.3682V9.93231H94.5974V4.9668H98.3605V5.79552H95.7565V6.97892H97.9818V7.78036Z" fill="#F5F6F8"/>
<path d="M103.439 5.79552H101.716V9.93231H100.557V5.79552H98.8568V4.9668H103.439V5.79552Z" fill="#F5F6F8"/>
<path d="M106.895 8.9092H104.863L104.476 9.93231H103.244L105.338 4.9668H106.412L108.517 9.93231H107.285L106.895 8.9092ZM105.176 8.08048H106.582L105.875 6.22182L105.176 8.08048Z" fill="#F5F6F8"/>
<defs>
<linearGradient id="paint0_linear" x1="4.34327" y1="9.2948" x2="8.41127" y2="2.20238" gradientUnits="userSpaceOnUse">
<stop stop-color="#5300D0"/>
<stop offset="1" stop-color="#8100FF"/>
</linearGradient>
<linearGradient id="paint1_linear" x1="7.81048" y1="14.7074" x2="3.74248" y2="21.7998" gradientUnits="userSpaceOnUse">
<stop stop-color="#5300D0"/>
<stop offset="1" stop-color="#8100FF"/>
</linearGradient>
<linearGradient id="paint2_linear" x1="0.00171837" y1="12.0108" x2="12.2181" y2="12.0108" gradientUnits="userSpaceOnUse">
<stop stop-color="#5300D0"/>
<stop offset="0.5" stop-color="#8000FD"/>
<stop offset="1" stop-color="#5700D4"/>
</linearGradient>
<clipPath id="clip0">
<rect width="83.6083" height="24" fill="white"/>
</clipPath>
</defs>
</svg>
